<?xml version="1.0" standalone="no"?>
<!DOCTYPE svg PUBLIC "-//W3C//DTD SVG 20010904//EN"
 "http://www.w3.org/TR/2001/REC-SVG-20010904/DTD/svg10.dtd">
<svg version="1.0" xmlns="http://www.w3.org/2000/svg"
 width="700.000000pt" height="700.000000pt" viewBox="0 0 700.000000 700.000000"
 preserveAspectRatio="xMidYMid meet">
<metadata>
Created by potrace 1.11, written by Peter Selinger 2001-2013
</metadata>
<g transform="translate(0.000000,700.000000) scale(0.100000,-0.100000)"
fill="#000000" stroke="none">
<path d="M3188 6775 c-2 -2 -55 -5 -118 -9 -63 -3 -124 -8 -135 -10 -11 -2
-45 -7 -75 -11 -30 -4 -64 -9 -75 -11 -11 -2 -33 -7 -50 -10 -141 -24 -435
-113 -560 -168 -368 -163 -629 -339 -891 -600 -112 -112 -249 -273 -304 -356
-8 -12 -27 -39 -41 -59 -41 -58 -131 -219 -181 -323 -129 -268 -213 -574 -245
-888 -15 -146 -8 -533 11 -650 3 -14 10 -59 16 -100 6 -41 15 -91 20 -110 5
-19 11 -51 14 -71 17 -115 122 -413 204 -584 60 -123 212 -377 242 -405 3 -3
21 -25 40 -50 196 -258 475 -504 773 -683 307 -184 689 -331 1022 -392 55 -9
160 -26 190 -30 93 -11 135 -16 180 -20 61 -7 462 -7 490 -2 11 3 52 8 90 11
39 4 95 11 125 16 30 5 70 12 88 15 174 29 430 108 590 181 41 19 75 34 76 34
6 0 211 114 216 119 3 4 25 19 50 35 83 54 198 145 281 223 348 330 561 772
626 1297 17 137 18 141 66 220 49 82 116 216 158 316 94 226 203 396 325 510
38 35 62 60 54 55 -8 -5 -31 -18 -50 -30 -38 -24 -193 -103 -252 -129 -74 -33
-165 -65 -318 -111 -191 -58 -246 -84 -310 -149 -81 -81 -165 -266 -229 -509
-25 -91 -26 -103 -8 -90 6 6 37 18 67 28 30 10 61 20 69 23 9 3 8 -5 -5 -29
-16 -28 -19 -55 -18 -159 1 -145 16 -211 27 -118 12 95 74 208 116 208 18 0
52 -40 63 -74 27 -89 -15 -245 -87 -323 -120 -130 -400 58 -495 333 -52 149
-43 289 25 393 l34 51 -27 1 c-15 1 -72 2 -127 4 -295 10 -396 36 -495 130
-112 105 -330 230 -572 326 -85 34 -332 113 -385 123 -10 2 -45 11 -78 19 -60
16 -363 81 -420 91 -40 7 -183 38 -330 71 -123 28 -374 102 -448 133 -79 33
-242 114 -292 145 -124 77 -271 205 -354 307 -33 40 -25 15 30 -92 74 -147
181 -314 254 -394 289 -323 558 -462 1200 -623 392 -99 526 -142 690 -222 l89
-44 -45 -12 c-116 -33 -368 -47 -505 -28 -191 25 -349 93 -448 192 -58 58 -56
38 8 -71 92 -157 275 -299 496 -386 160 -63 405 -126 600 -154 52 -7 134 -20
143 -22 4 -1 13 -2 20 -3 22 -3 -46 -27 -113 -40 -59 -12 -228 -16 -305 -7
-117 13 -254 42 -335 71 l-45 16 50 -51 c210 -216 481 -355 752 -387 73 -9
327 -9 413 0 113 11 164 18 172 23 18 11 6 -14 -15 -32 -127 -111 -320 -172
-530 -169 -84 2 -70 -6 174 -95 145 -53 242 -71 377 -71 61 0 112 -3 112 -6 0
-25 -166 -232 -240 -300 -82 -74 -99 -88 -175 -138 -362 -239 -804 -285 -1252
-131 -156 53 -358 170 -471 271 -27 25 -53 45 -56 45 -28 0 166 -215 249 -276
22 -16 42 -31 45 -35 28 -32 246 -150 324 -175 l41 -14 -50 5 c-27 2 -104 14
-170 25 -575 100 -960 304 -1215 645 -59 79 -154 251 -185 335 -78 212 -118
390 -150 670 -2 25 -8 119 -11 210 -4 91 -7 166 -8 167 -4 4 -97 -337 -117
-428 -15 -68 -22 -138 -25 -254 -3 -150 0 -183 33 -389 6 -38 6 -39 -13 -20
-200 203 -346 536 -390 894 -16 129 -10 486 11 600 2 14 7 41 9 60 23 174 119
478 210 664 107 219 218 371 366 500 l45 38 -35 -7 c-65 -13 -185 -65 -250
-107 -66 -43 -189 -160 -293 -278 -56 -65 -57 -65 -50 -30 11 65 73 240 119
338 286 613 925 1059 1525 1065 119 1 216 -7 284 -23 57 -14 63 -12 35 7 -14
9 -27 20 -30 24 -12 16 -116 71 -170 89 -71 24 -158 34 -312 34 -64 1 -114 4
-112 8 7 10 247 102 344 132 89 26 277 75 320 82 14 3 61 11 105 19 132 23
184 28 322 30 212 3 363 -26 481 -91 68 -39 97 -63 142 -119 17 -21 30 -34 30
-29 0 19 -61 101 -102 137 -49 43 -44 44 82 13 241 -61 427 -127 733 -260 20
-9 37 -14 37 -11 0 14 -307 178 -445 237 -56 24 -236 89 -259 94 -11 2 -40 10
-65 19 -50 16 -195 51 -251 60 -19 3 -60 10 -90 15 -87 14 -139 20 -230 26
-100 6 -279 12 -282 9z"/>
</g>
</svg>
