<?xml version="1.0" standalone="no"?>
<!DOCTYPE svg PUBLIC "-//W3C//DTD SVG 20010904//EN"
 "http://www.w3.org/TR/2001/REC-SVG-20010904/DTD/svg10.dtd">
<svg version="1.0" xmlns="http://www.w3.org/2000/svg"
 width="600.000000pt" height="600.000000pt" viewBox="0 0 600.000000 600.000000"
 preserveAspectRatio="xMidYMid meet">
<metadata>
Created by potrace 1.11, written by Peter Selinger 2001-2013
</metadata>
<g transform="translate(0.000000,600.000000) scale(0.100000,-0.100000)"
fill="#000000" stroke="none">
<path d="M3434 4570 c18 -292 114 -589 262 -810 71 -105 88 -126 210 -246 123
-123 259 -225 481 -363 301 -187 356 -224 468 -307 165 -123 281 -247 355
-377 18 -32 34 -56 36 -55 7 7 -29 155 -52 217 -88 235 -225 373 -644 651
-291 193 -422 295 -567 438 -232 229 -396 494 -520 842 l-34 95 5 -85z"/>
<path d="M3745 3575 c25 -172 108 -332 237 -457 111 -108 265 -192 578 -318
172 -69 290 -126 365 -176 48 -31 63 -43 128 -103 l29 -26 -18 40 c-62 139
-188 243 -469 390 -400 208 -512 281 -651 422 -70 71 -184 227 -184 251 0 6
-5 14 -11 18 -9 5 -10 -6 -4 -41z"/>
<path d="M3705 3300 c9 -66 49 -174 87 -237 40 -68 139 -169 210 -216 86 -57
249 -132 438 -203 159 -59 304 -134 369 -191 45 -39 50 -41 41 -19 -43 115
-137 185 -483 360 -133 67 -269 140 -302 161 -157 101 -269 215 -345 350 l-22
40 7 -45z"/>
<path d="M3015 2990 c19 -190 91 -364 205 -494 71 -81 243 -171 375 -195 151
-29 385 -34 670 -16 77 5 160 9 185 9 l45 0 -33 13 c-46 19 -268 62 -402 79
-25 3 -76 9 -115 14 -38 5 -95 12 -125 15 -142 16 -323 64 -400 107 -170 94
-260 207 -398 498 -10 22 -11 17 -7 -30z"/>
<path d="M3766 2996 c48 -166 144 -275 311 -352 39 -19 153 -61 253 -94 179
-59 278 -103 320 -142 37 -35 34 -10 -4 37 -61 74 -127 113 -346 205 -303 127
-424 210 -532 370 -16 24 -16 23 -2 -24z"/>
<path d="M2793 2895 c9 -205 61 -338 176 -455 120 -121 259 -182 511 -225 47
-8 460 -19 460 -12 0 6 -156 42 -230 53 -25 3 -52 8 -60 9 -8 2 -37 6 -65 9
-48 6 -70 10 -125 22 -14 3 -36 7 -50 10 -184 35 -358 148 -454 293 -64 96
-134 268 -151 371 -12 72 -17 41 -12 -75z"/>
<path d="M4029 2603 c-15 -112 147 -203 409 -229 39 -3 72 -3 72 1 0 21 -108
94 -214 144 -138 66 -264 106 -267 84z"/>
<path d="M5554 2507 c3 -47 12 -82 30 -113 l25 -45 -36 6 c-78 12 -181 45
-268 87 l-40 19 40 -35 c75 -66 167 -101 344 -131 51 -9 112 -23 135 -32 39
-16 131 -81 123 -89 -2 -2 -19 1 -38 6 -38 12 -188 36 -289 47 -128 15 -419 9
-550 -11 -14 -2 -47 -7 -75 -11 -128 -18 -362 -88 -702 -209 -133 -47 -255
-89 -272 -92 -17 -4 -33 -10 -36 -14 -2 -4 21 -1 53 7 31 7 86 20 122 28 36 8
121 29 190 46 138 33 576 125 643 134 23 3 53 8 67 10 25 4 49 7 145 20 28 3
68 8 90 11 22 3 132 7 245 8 205 3 326 -7 447 -38 47 -12 51 -12 46 3 -3 9
-16 27 -28 41 -12 14 -37 47 -54 73 -18 26 -50 59 -72 74 -43 28 -74 73 -95
136 l-14 42 3 -71 4 -71 -26 5 c-48 9 -111 85 -143 175 l-19 52 5 -68z"/>
<path d="M4940 2347 c-25 -13 -181 -66 -210 -72 -8 -2 -35 -8 -60 -15 -25 -7
-52 -14 -60 -15 -8 -2 -47 -10 -86 -19 -38 -8 -92 -18 -120 -22 -27 -3 -51 -8
-54 -9 -3 -2 -37 -6 -75 -10 -39 -4 -72 -9 -75 -10 -3 -2 -48 -6 -100 -10 -52
-4 -115 -9 -140 -12 -25 -3 -409 -6 -855 -7 -445 -2 -857 -6 -915 -10 -58 -4
-127 -9 -155 -11 -73 -5 -186 -16 -215 -20 -14 -2 -45 -6 -70 -10 -87 -11
-185 -27 -225 -36 -22 -5 -56 -11 -75 -15 -70 -11 -278 -67 -395 -106 -314
-105 -581 -245 -845 -444 -163 -122 -199 -159 -69 -71 163 111 475 277 521
277 8 0 18 4 23 9 21 19 341 116 448 135 188 34 213 38 327 50 30 4 71 8 90
11 150 18 387 20 1280 15 306 -2 497 3 617 14 21 2 76 7 123 11 47 4 92 9 100
10 8 1 40 6 70 10 71 9 103 13 170 25 94 17 118 22 195 40 28 6 59 14 71 16
98 19 437 135 574 196 54 24 223 108 229 114 10 9 -16 3 -39 -9z"/>
</g>
</svg>
